<svg xmlns="http://www.w3.org/2000/svg" width="60" height="60" enable-background="new" viewBox="0 0 60 60" id="app-store"><path style="font-feature-settings:normal;font-variant-alternates:normal;font-variant-caps:normal;font-variant-east-asian:normal;font-variant-ligatures:normal;font-variant-numeric:normal;font-variant-position:normal;font-variation-settings:normal;inline-size:0;isolation:auto;mix-blend-mode:normal;shape-margin:0;shape-padding:0;text-decoration-color:#000;text-decoration-line:none;text-decoration-style:solid;text-indent:0;text-orientation:mixed;text-transform:none" d="m30 8c-12.138 0-22 9.8616-22 22s9.8616 22 22 22 22-9.8616 22-22-9.8616-22-22-22zm0 2c11.058 0 20 8.9425 20 20s-8.9425 20-20 20-20-8.9425-20-20 8.9425-20 20-20z" color="#000"></path><path style="font-feature-settings:normal;font-variant-alternates:normal;font-variant-caps:normal;font-variant-east-asian:normal;font-variant-ligatures:normal;font-variant-numeric:normal;font-variant-position:normal;font-variation-settings:normal;inline-size:0;isolation:auto;mix-blend-mode:normal;shape-margin:0;shape-padding:0;text-decoration-color:#000;text-decoration-line:none;text-decoration-style:solid;text-indent:0;text-orientation:mixed;text-transform:none" d="m26.966 15.001a0.99991 0.99993 0 0 0-0.45506 0.12695 0.99991 0.99993 0 0 0-0.38475 1.3613l2.7265 4.869-5.4002 9.6422h-4.453a0.99996 0.99996 0 0 0-0.99996 0.99996 0.99996 0.99996 0 0 0 0.99996 0.99996h3.3339l-4.2069 7.5114a0.99991 0.99996 0 0 0 0.38475 1.3613 0.99991 0.99996 0 0 0 1.3613-0.38475l4.7537-8.488h10.746l4.7537 8.488a0.99991 0.99993 0 0 0 1.3613 0.38475 0.99991 0.99993 0 0 0 0.38475-1.3613l-4.2069-7.5114h3.3339a0.99996 0.99996 0 0 0 0.99996-0.99996 0.99996 0.99996 0 0 0-0.99996-0.99996h-4.453l-5.4002-9.6422 2.7265-4.869a0.99991 0.99996 0 0 0-0.38475-1.3613 0.99991 0.99996 0 0 0-0.4824-0.12695 0.99991 0.99996 0 0 0-0.87888 0.5117l-2.1269 3.7987-2.1269-3.7987a0.99991 0.99993 0 0 0-0.90622-0.5117zm3.0331 8.404 4.2538 7.5954h-8.5075z" color="#000"></path></svg>